<svg viewBox="0 0 400 300" fill="none" xmlns="http://www.w3.org/2000/svg"><g clip-path="url(#a)"><path fill-rule="evenodd" clip-rule="evenodd" d="M212.83 79.26c14.389-2.298 20.213-4.026 34.261-17.453 14.048-13.426 28.293 6.162 49.42-1.702 21.126-7.865 23.057-17.387 55.371 11.78 14.895 12.397 26.743 7.49 34.044 12.397 4.867 3.271 9.558 11.336 14.074 24.194H212.83c-14.902-5.143-22.353-9.415-22.353-12.815 0-5.1 7.965-14.104 22.353-16.401Z" fill="url(#b)"/><path fill-rule="evenodd" clip-rule="evenodd" d="M188.129 48.481c5.411-.217 11.214 1.053 17.408 3.81 5.154 2.294 9.981 5.756 14.48 10.385l-15.29 34.334-31.888-14.195 15.29-34.334Z" fill="url(#c)"/><path fill-rule="evenodd" clip-rule="evenodd" d="M66.49 96.063c-4.475 3.017-8.396 7.473-11.763 13.369-2.801 4.905-4.658 10.567-5.57 16.983l32.331 18.872 17.334-30.352L66.49 96.063Z" fill="url(#d)"/><path fill-rule="evenodd" clip-rule="evenodd" d="M49.084 126.391c1.913 1.117 7.118-4.353 11.905-12.735 4.786-8.381 7.414-16.477 5.5-17.593-1.912-1.117-7.642 5.168-12.429 13.549-4.786 8.382-6.89 15.663-4.976 16.779Z" fill="#FAFAFB"/><path fill-rule="evenodd" clip-rule="evenodd" d="M50.6 121.463c1.275.744 5.117-3.555 8.797-9.999 3.68-6.444 5.854-12.58 4.579-13.324-1.276-.744-5.517 4.184-9.197 10.628-3.68 6.444-5.455 11.95-4.18 12.695Z" fill="#E5E5EC"/><path fill-rule="evenodd" clip-rule="evenodd" d="M209.823 251.714c147.794 0 67.38-11.5 95.548-18.738 25.339-6.512 61.867-8.295 61.867-17.063 0-18.515-66.36-31.246-157.415-31.246-91.055 0-164.87 15.009-164.87 33.524 0 18.514 73.815 33.523 164.87 33.523Z" fill="url(#e)"/><path fill-rule="evenodd" clip-rule="evenodd" d="M231.038 110.851c-3.683 8.358-5.931 13.637-6.743 15.838-.378.913-5.249 3.186-14.614 6.818-3.14.279-4.935 1.224-5.385 2.836-.256 1.035-.141 2.807 1.457 2.954 1.065.098 2.583-.715 4.555-2.44 10.462.381 16.683-1.387 18.666-5.303 1.982-3.917 5.001-9.979 9.056-18.187l-6.507-3.22-.485.704Z" fill="url(#f)"/><path fill-rule="evenodd" clip-rule="evenodd" d="M265.408 98.427c0-1.51 6.021-6.689 7.928-8.774.528-.09-9.594-1.905-16.492-6.137-4.599-2.821-4.955-3.746-1.069-2.775 9.813 1.85 17.124 3.488 21.936 4.915 4.749 2.172-.094 9.28-4.814 17.907s-7.489-3.626-7.489-5.136Z" fill="url(#g)"/><path fill-rule="evenodd" clip-rule="evenodd" d="M238.41 199.451c-3.101 2.28-5.267 3.42-6.499 3.42-1.848 0-2.847 1.966-1.128 3.027 1.718 1.062 7.221-.468 8.631-.468 1.409 0 5.038.607 3.647-4.199-.927-3.203-1.778-4.566-2.554-4.09l-2.097.676v1.634ZM264.182 199.451c3.101 2.28 5.268 3.42 6.5 3.42 1.847 0 2.846 1.966 1.128 3.027-1.719 1.062-7.222-.468-8.631-.468-1.41 0-5.038.607-3.648-4.199.927-3.203 1.778-4.566 2.554-4.09l2.097.676v1.634Z" fill="#3E3E6E"/><path fill-rule="evenodd" clip-rule="evenodd" d="M238.326 142.94c-1.805 13.461-2.333 27.202-1.584 41.222 1.051 15.127-.05 14.792 1.584 14.792.618 0 3.131.34 3.685-.657 1.325-2.383 3.466-22.371 2.641-26.39-.082-.604 8.24-19.362 8.24-26.657-.31-1.424-5.165-2.194-14.566-2.31Z" fill="url(#h)"/><path fill-rule="evenodd" clip-rule="evenodd" d="M264.01 142.94c1.806 13.461 2.334 27.202 1.585 41.222-1.051 15.127.05 14.792-1.585 14.792-.617 0-3.13.34-3.684-.657-1.325-2.383-3.466-22.371-2.641-26.39.082-.604-8.24-19.362-8.24-26.657.309-1.424 5.165-2.194 14.565-2.31Z" fill="url(#i)"/><path fill-rule="evenodd" clip-rule="evenodd" d="M246.768 81.726c-1.14 5.765-.604 9.154 1.608 10.17 2.896 1.221.851 3.742.265 4.052-.39.207-.295.907.287 2.102 1.831.98 3.177 1.37 4.037 1.17.86-.199 1.909-1.18 3.147-2.942-2.306-1.68-3.109-3.026-2.408-4.04.701-1.015 1.765-2.074 3.193-3.175 1.387-1.076 1.334-1.894-.16-2.454.361-1.017.495-2.177.401-3.48l-4.861-1.403-4.947-1.093-.562 1.093Z" fill="url(#j)"/><path fill-rule="evenodd" clip-rule="evenodd" d="M249.071 95.477c-9.182.192-15.574 5.348-19.175 15.465.481.181 7.19 3.442 7.19 5.557 0 2.116-3.718 23.246-3.262 27.655.456 4.409 18.262 8.563 35.686 2.753 1.187-1.157.07-26.705-2.992-33.478-.159-.283 7.503-7.391 6.966-9.95-.536-2.559-5.291-7.082-7.889-7.082s-8.895.413-10.362-.92c-.62-.564-.002 1.823-3.206 1.823-1.284 0-2.269-.608-2.956-1.823Z" fill="#5B5BEA"/><path fill-rule="evenodd" clip-rule="evenodd" d="M250.02 83.036c4.737-1.366 5.995.733 5.995 1.621 0 .592-.149 1.574-.448 2.944.583-.262.993-.462 1.231-.598 1.453-.832 2.414-2.308 2.757-3.458.64-2.148-1.242-6.705-6.12-6.025-1.7-.326-1.97-2.863-4.926-1.302-2.955 1.56-3.951.36-3.951 1.96s.122 6.53 5.462 4.858Z" fill="#353564"/><path fill-rule="evenodd" clip-rule="evenodd" d="M316.828 168.268h2.145c.757 0 1.371.614 1.371 1.371v22.176a1.37 1.37 0 0 1-1.371 1.37h-2.145a1.37 1.37 0 0 1-1.371-1.37v-22.176c0-.757.614-1.371 1.371-1.371Z" fill="#F0F0F3" fill-opacity=".9"/><path fill-rule="evenodd" clip-rule="evenodd" d="M312.889 138.538c-4.539 9.31-20.168 37.863 1.731 41.06 21.899 3.197 20.922-15.808 17.082-22.609-3.841-6.801-8.177-10.61-8.177-18.451 0-7.84-6.097-9.309-10.636 0Z" fill="url(#k)"/><path fill-rule="evenodd" clip-rule="evenodd" d="M194.972 218.952h1.676c.379 0 .686.307.686.686v12.343a.686.686 0 0 1-.686.686h-1.676a.686.686 0 0 1-.686-.686v-12.343c0-.379.307-.686.686-.686Z" fill="#FBFBFE"/><path fill-rule="evenodd" clip-rule="evenodd" d="M193.235 201.209c-2.373 5.187-10.541 21.095.904 22.877 11.445 1.781 10.935-8.808 8.927-12.597-2.007-3.79-4.273-5.911-4.273-10.28s-3.186-5.187-5.558 0Z" fill="url(#l)"/><path d="M40.62 107.405a8.054 8.054 0 1 0-4.169-15.559 8.054 8.054 0 1 0 4.17 15.559Z" fill="url(#m)"/><path opacity=".7" d="M32.785 78.763c-11.46 3.071-18.338 14.557-15.364 25.656" stroke="#E6B24A" stroke-width="2.286" stroke-linecap="round"/><path opacity=".3" d="M28.712 65.275C9.374 70.457-2.18 90.04 2.904 109.016" stroke="#E4B14C" stroke-width="2.286" stroke-linecap="round"/></g><defs><linearGradient id="b" x1="295.238" y1="57.407" x2="295.238" y2="108.476" gradientUnits="userSpaceOnUse"><stop stop-color="#F6F6F7"/><stop offset="1" stop-color="#FCFCFF" stop-opacity="0"/></linearGradient><linearGradient id="c" x1="197.872" y1="53.305" x2="199.469" y2="66.406" gradientUnits="userSpaceOnUse"><stop stop-color="#F5F5F7"/><stop offset="1" stop-color="#EBEBEF"/></linearGradient><linearGradient id="d" x1="61.54" y1="105.703" x2="67.923" y2="117.296" gradientUnits="userSpaceOnUse"><stop stop-color="#F5F5F7" stop-opacity=".984"/><stop offset="1" stop-color="#EBEBEF"/></linearGradient><linearGradient id="e" x1="134.192" y1="217.374" x2="316.182" y2="252.483" gradientUnits="userSpaceOnUse"><stop stop-color="#F9F9FC"/><stop offset="1" stop-color="#EDEDF2"/></linearGradient><linearGradient id="f" x1="208.483" y1="134.183" x2="231.191" y2="113.028" gradientUnits="userSpaceOnUse"><stop stop-color="#FFD2C4"/><stop offset="1" stop-color="#FFB8A3"/></linearGradient><linearGradient id="g" x1="266.382" y1="82.93" x2="271.565" y2="100.145" gradientUnits="userSpaceOnUse"><stop stop-color="#FFD2C4"/><stop offset="1" stop-color="#FFB8A3"/></linearGradient><linearGradient id="h" x1="244.241" y1="194.9" x2="254.959" y2="152.34" gradientUnits="userSpaceOnUse"><stop stop-color="#7878C3"/><stop offset="1" stop-color="#5C5CBB"/></linearGradient><linearGradient id="i" x1="258.068" y1="196.336" x2="253.657" y2="145.461" gradientUnits="userSpaceOnUse"><stop stop-color="#7878C3"/><stop offset="1" stop-color="#5C5CBB"/></linearGradient><linearGradient id="j" x1="248.655" y1="83.641" x2="257.741" y2="93.885" gradientUnits="userSpaceOnUse"><stop stop-color="#FFD2C4"/><stop offset="1" stop-color="#FFB8A3"/></linearGradient><linearGradient id="k" x1="318.546" y1="132.095" x2="318.546" y2="179.958" gradientUnits="userSpaceOnUse"><stop stop-color="#EBEBEE"/><stop offset="1" stop-color="#FCFCFD"/></linearGradient><linearGradient id="l" x1="196.191" y1="197.619" x2="196.191" y2="224.286" gradientUnits="userSpaceOnUse"><stop stop-color="#EBEBEE"/><stop offset="1" stop-color="#FCFCFD"/></linearGradient><linearGradient id="m" x1="32.94" y1="94.696" x2="44.321" y2="106.411" gradientUnits="userSpaceOnUse"><stop stop-color="#FAC251"/><stop offset="1" stop-color="#F5A067"/></linearGradient><clipPath id="a"><path fill="#fff" d="M0 0h400v300H0z"/></clipPath></defs></svg>